# File created by Blade
# Date/Time:  Wed Jan 21 17:16:23 2015
# Frame Rate: 120.000 fps
#------------------------------------------------------
:FULLY-SPECIFIED
:DEGREES
2476
root 19.794346 35.403356 -21.579913 -179.629630 -1.904152 -180.055337
Spine -9.029670 -0.732388 -1.313127
Head 13.494136 0.578066 2.537669
LeftShoulder -14.714670 -29.872445 17.095630
LeftArm 6.899292 8.166124 -9.995302
LeftForeArm 9.407029 -0.000000 -0.765132
LeftHand -8.543966 -0.000000 -5.164695
LeftHandThumb1 -26.253704 0.000000 33.147579
RightShoulder -11.662704 -6.687193 -8.296249
RightArm 6.382269 32.679350 15.149622
RightForeArm -36.846440 -0.000000 7.513842
RightHand -7.682361 -0.000000 5.051643
RightHandThumb1 -24.326973 -0.000000 -32.862282
LeftUpLeg 9.811388 5.838890 1.778976
LeftLeg -5.411192 -0.000000 0.000000
LeftFoot -17.580600 22.636890 -9.887599
LeftToeBase 18.084410 -0.000000 -0.000000
RightUpLeg 9.984822 -13.627482 -3.771105
RightLeg -2.597659 -0.000000 0.000000
RightFoot -14.585324 -14.889307 -3.263104
RightToeBase 19.190204 -0.000000 -0.000000
2477
root 19.794000 35.403665 -21.591048 -179.645673 -1.920597 -180.061572
Spine -9.022211 -0.740029 -1.323252
Head 13.389148 0.531383 2.556013
LeftShoulder -14.639357 -29.834558 17.117879
LeftArm 6.687654 8.139260 -9.920495
LeftForeArm 9.384754 -0.000000 -0.812189
LeftHand -8.473822 0.000000 -5.137963
LeftHandThumb1 -26.253704 0.000000 33.147579
RightShoulder -11.670988 -6.701663 -8.257831
RightArm 6.321951 32.568804 15.159917
RightForeArm -36.756344 -0.000000 7.449923
RightHand -7.710983 0.000000 4.977546
RightHandThumb1 -24.326973 -0.000000 -32.862282
LeftUpLeg 9.879570 5.743586 1.784438
LeftLeg -5.470822 -0.000000 0.000000
LeftFoot -17.552469 22.616218 -9.959003
LeftToeBase 18.033775 -0.000000 -0.000000
RightUpLeg 9.972653 -13.521488 -3.753708
RightLeg -2.513166 -0.000000 0.000000
RightFoot -14.619974 -15.052584 -3.288706
RightToeBase 19.183124 -0.000000 -0.000000
2478
root 19.794047 35.405032 -21.600517 -179.699017 -1.970694 -180.082110
Spine -8.948454 -0.772748 -1.370111
Head 13.215783 0.445616 2.608442
LeftShoulder -14.558537 -29.768621 17.169037
LeftArm 6.508361 8.065642 -9.884826
LeftForeArm 9.248976 0.000000 -0.914803
LeftHand -8.549198 0.000000 -5.115237
LeftHandThumb1 -26.253704 0.000000 33.147579
RightShoulder -11.642848 -6.766150 -8.224962
RightArm 6.215686 32.529347 15.212224
RightForeArm -36.559002 -0.000000 7.375090
RightHand -7.844310 -0.000000 5.131141
RightHandThumb1 -24.326973 -0.000000 -32.862282
LeftUpLeg 9.925324 5.572972 1.771833
LeftLeg -5.432861 -0.000000 0.000000
LeftFoot -17.619092 22.603827 -10.137329
LeftToeBase 18.009055 -0.000000 -0.000000
RightUpLeg 9.997782 -13.456598 -3.760933
RightLeg -2.417636 -0.000000 0.000000
RightFoot -14.649091 -15.229424 -3.244724
RightToeBase 19.113839 -0.000000 -0.000000
2479
root 19.794719 35.407274 -21.608339 -179.774990 -2.052074 -180.117690
Spine -8.821481 -0.857385 -1.433196
Head 13.007888 0.414396 2.677853
LeftShoulder -14.467646 -29.821489 17.227317
LeftArm 6.259900 8.044534 -9.816501
LeftForeArm 9.137738 -0.000000 -1.040566
LeftHand -8.517344 0.000000 -5.083335
LeftHandThumb1 -26.253704 0.000000 33.147579
RightShoulder -11.604815 -6.781773 -8.219215
RightArm 6.115343 32.501613 15.310323
RightForeArm -36.452110 0.000000 7.253562
RightHand -7.782179 0.000000 5.048863
RightHandThumb1 -24.326973 -0.000000 -32.862282
LeftUpLeg 9.956298 5.347630 1.740131
LeftLeg -5.335770 -0.000000 0.000000
LeftFoot -17.663489 22.660518 -10.216892
LeftToeBase 18.007502 -0.000000 -0.000000
RightUpLeg 10.040833 -13.495161 -3.796533
RightLeg -2.302810 -0.000000 0.000000
RightFoot -14.689861 -15.398512 -3.247438
RightToeBase 19.317332 -0.000000 -0.000000
